<svg id="Layer_1" data-name="Layer 1" xmlns="http://www.w3.org/2000/svg" viewBox="0 0 857.29 498.97">
  <path d="M318.19,315.34l-7.33,4.29c-1.37.81-2.95.69-3.53-.28l-.33-.58q-24.42,13.89-49.34,26.85a3.32,3.32,0,0,1-4.5-4.49q6.25-12,12.49-23.91c2-3.76,4.14-7.47,5.85-11.33.76-1.73,1.72-4.13,1.43-6.17a253.56,253.56,0,0,0-37.87,26.6c-2.71,2.3-7.25-.66-5.16-4,2.66-4.22,5.19-8.49,7.59-12.85q-12.6,8.46-24.38,18c-3.23,2.61-7.78-1.68-4.65-4.64A57.64,57.64,0,0,0,218,311l-16.92,8.79-12.43,6.48c-3.2,1.66-6.53,3.63-10.26,3.63a7.23,7.23,0,0,1-7.31-5.56c-.81-3.59.89-7.48,2.24-10.73a51.24,51.24,0,0,1,13.56-18.78c3.16-2.77,7.82,1.86,4.65,4.64a46,46,0,0,0-11.3,14.69,36.46,36.46,0,0,0-1.82,4.43c-.31.88-1.39,3.14-1,4.07.81,1.77,4.26-.17,5.51-.82,13.59-7,27.11-14.11,40.67-21.15,2.3-1.21,5.92.84,4.82,3.69q-1,2.5-2.11,4.86,8.91-6.35,18.21-12.11c3-1.83,5.87,1.71,4.48,4.51-1.48,3-3,6-4.62,8.91a260.13,260.13,0,0,1,28.16-18.2,3.34,3.34,0,0,1,4,.52c6.47,6.8.76,16.11-2.75,22.84q-5,9.64-10.05,19.27,20.14-10.62,39.92-21.89l-.38-.67c-.57-1,.09-2.4,1.46-3.21l7.35-4.31Z" transform="translate(-170.89 -69.3)" style="fill: #f8f1d2"/>
  <polygon points="153.51 241.21 149.35 243.65 144.09 234.66 148.24 232.21 153.51 241.21" style="fill: #f8f1d2"/>
  <polygon points="173.67 226.88 154.92 237.88 151.42 231.94 170.18 220.94 173.67 226.88" style="fill: #f8f1d2"/>
  <path d="M349.81,290l-.29,1.74-.26,1.53a.37.37,0,0,1-.09.19.64.64,0,0,1-.24.25L346.77,295,343.29,289l2.14-1.25a.73.73,0,0,1,.35-.09H346l1.45.52,1.67.6A1,1,0,0,1,349.81,290Z" transform="translate(-170.89 -69.3)" style="fill: #f8f1d2"/>
  <path d="M200.86,280.51c-5.63,0-5.64,8.75,0,8.75S206.5,280.51,200.86,280.51Z" transform="translate(-170.89 -69.3)" style="fill: #f8f1d2"/>
  <path d="M525.85,320.21v26l-.06.06h0a40.41,40.41,0,0,1-28.69,11.9c-.56,0-1.1,0-1.64,0a40.44,40.44,0,0,1-19.39-5.83c-.18-.11-.37-.22-.55-.35l-.75-.48a40.56,40.56,0,0,1,17.78-74.15l.87-.09.86-.07.87-.05c.58,0,1.18-.05,1.79-.05h.16c.57,0,1.14,0,1.7,0l.44,0,.27,0c.61,0,1.22.08,1.82.14.24,0,.49,0,.75.08l.19,0,1,.14.35.06,1.16.2.57.12a40.25,40.25,0,0,1,13.78,5.65v0a40,40,0,0,1,5.73,4.49,1.24,1.24,0,0,1,0,1.77L515,299.72a1.23,1.23,0,0,1-1.69,0,24.39,24.39,0,0,0-6.62-4.27h0a24,24,0,1,0-10.88,46.06l1.35,0a23.9,23.9,0,0,0,17-7.06l-12.48-12.47a2.62,2.62,0,0,1,1.85-4.47h19.76A2.62,2.62,0,0,1,525.85,320.21Z" transform="translate(-170.89 -69.3)" style="fill: #f8f1d2"/>
  <polygon points="320.44 307.82 320.44 307.89 320.4 307.86 320.41 307.86 320.44 307.82" style="fill: #f8f1d2"/>
  <g>
    <g>
      <path d="M751.57,334.76H767.4V344h-25V321.76h3.74a12.93,12.93,0,0,0,0-25.86H733.18v75.16l-9.2-9.2V286.7h22.13a22.09,22.09,0,0,1,17.9,9.13l0,.07a22.13,22.13,0,0,1-12.49,34.37Z" transform="translate(-170.89 -69.3)" style="fill: #f8f1d2"/>
      <polygon points="546.08 270.96 546.08 270.96 536.89 261.77 541.37 266.25 546.08 270.96" style="fill: #f8f1d2"/>
      <path d="M742.53,274.84q.88.62,1.71,1.32Q743.42,275.46,742.53,274.84Z" transform="translate(-170.89 -69.3)" style="fill: #f8f1d2"/>
      <path d="M744.84,276.69l.31.29Z" transform="translate(-170.89 -69.3)" style="fill: #f8f1d2"/>
      <path d="M744.68,276.55l.16.14Z" transform="translate(-170.89 -69.3)" style="fill: #f8f1d2"/>
      <path d="M744.31,276.22l.24.21Z" transform="translate(-170.89 -69.3)" style="fill: #f8f1d2"/>
      <path d="M742.51,274.83h0Z" transform="translate(-170.89 -69.3)" style="fill: #f8f1d2"/>
      <path d="M744.24,276.16l.07.06Z" transform="translate(-170.89 -69.3)" style="fill: #f8f1d2"/>
      <path d="M742.16,274.59l.35.24Z" transform="translate(-170.89 -69.3)" style="fill: #f8f1d2"/>
      <path d="M729.9,270.88h0Z" transform="translate(-170.89 -69.3)" style="fill: #f8f1d2"/>
      <path d="M744.63,276.5l0,.05-.13-.12Z" transform="translate(-170.89 -69.3)" style="fill: #f8f1d2"/>
      <path d="M742.14,274.57l0,0Z" transform="translate(-170.89 -69.3)" style="fill: #f8f1d2"/>
      <path d="M745.69,277.51l-.54-.53Z" transform="translate(-170.89 -69.3)" style="fill: #f8f1d2"/>
    </g>
    <g>
      <rect x="546.08" y="252.96" height="6.95" style="fill: #f8f1d2"/>
      <rect x="546.08" y="228.04" height="2.29" style="fill: #f8f1d2"/>
      <rect x="546.08" y="212.11" height="10.49" style="fill: #f8f1d2"/>
      <rect x="546.08" y="222.6" height="5.44" style="fill: #f8f1d2"/>
      <rect x="546.08" y="243.97" height="8.99" style="fill: #f8f1d2"/>
      <rect x="546.08" y="235.94" height="8.04" style="fill: #f8f1d2"/>
      <rect x="546.08" y="230.33" height="5.61" style="fill: #f8f1d2"/>
      <rect x="546.08" y="259.9" height="4.37" style="fill: #f8f1d2"/>
      <rect x="546.08" y="264.27" height="6.69" style="fill: #f8f1d2"/>
      <rect x="546.08" y="210.78" height="1.33" style="fill: #f8f1d2"/>
      <path d="M747.86,280.08H717v60.18l-4.71-4.71-4.48-4.49V270.88H731l.42,0a22.06,22.06,0,0,1,13.23,5.57c.17.16.35.31.52.48l.54.53.26.27.25.27.17.19a1.54,1.54,0,0,1,.17.19h0l.11.12.1.12.11.13,0,0a1.15,1.15,0,0,1,.14.17l.25.3.12.16.05.06.13.18.23.3Z" transform="translate(-170.89 -69.3)" style="fill: #f8f1d2"/>
    </g>
  </g>
  <path d="M260.6,90.11c-.69-.82-1.42-1.61-2.19-2.38C243,72.35,217.08,73.36,200.45,90s-17.65,42.59-2.27,58c.77.77,1.57,1.5,2.39,2.18,15.57,13.06,39.78,11.36,55.58-4.44S273.66,105.68,260.6,90.11Zm-12.13-3.6-9.21,14.31-4.89,7.59a10.57,10.57,0,0,0-8.9-.79l-2.28-8.21-4.3-15.5A35.19,35.19,0,0,1,248.47,86.51Zm-16,35.54a6.24,6.24,0,0,1-8.38.67c-.13-.1-.25-.22-.37-.33a6.45,6.45,0,0,1,9.09-9.09,3.7,3.7,0,0,1,.33.36A6.25,6.25,0,0,1,232.5,122.05Zm-38.7,8.83a36.9,36.9,0,0,1,3.63-29.15l14.1,7.36L219,113a11.1,11.1,0,0,0-1.09,8.78l-8.36,3.16Zm14.33,18.3,9.21-14.31,4.89-7.59a10.58,10.58,0,0,0,8.91.79l2.28,8.21,4.29,15.5A35.19,35.19,0,0,1,208.13,149.18Zm38-24.61-7.93-3a10.79,10.79,0,0,0,0-8.9l8-4.16,15-7.85a35.94,35.94,0,0,1-.14,29.56Z" transform="translate(-170.89 -69.3)" style="fill: #f8f1d2"/>
  <path d="M261.57,151.12c-13.14,13.14-32.1,16.53-47.06,9.79,14.8,4.08,32-.18,44.3-12.52s16.66-29.74,12.42-44.62C278.15,118.78,274.8,137.89,261.57,151.12Z" transform="translate(-170.89 -69.3)" style="fill: #f8f1d2"/>
  <path d="M305.82,98.51l-.56-.19a7.48,7.48,0,0,0-.87-.23,9.25,9.25,0,0,0-1.42-.22l-.45,0h-1a32.36,32.36,0,0,0-8.23,1.68c-.75.25-1.52.53-2.29.8h0c-.65.24-1.29.5-1.93.77-.22.09-.44.18-.66.29a36.19,36.19,0,0,0-3.79,1.91c-.47.3-.92.62-1.38.93l-1.35,1-.06,0-1.25,1c-.43.34-.86.66-1.27,1a2.2,2.2,0,0,0-.23.2l-2,1.83a45.29,45.29,0,0,0-6.28-15.76c-.3-.48-.63-1-.95-1.44-.66-.94-1.34-1.85-2.06-2.74h0a49.13,49.13,0,0,0-3.5-3.86h0l.71-.15,2-.39c1.58-.32,3.24-.63,5-1l2.72-.53,1.26-.25c1.67-.32,3.39-.66,5.08-.92a29.72,29.72,0,0,1,4.76-.42,19.4,19.4,0,0,1,3.64.33,17.42,17.42,0,0,1,2.68.7c.28.09.53.19.78.29a3.54,3.54,0,0,1,.33.19l.32.22a2.45,2.45,0,0,1,.38.23c.28.18.55.39.82.6l.26.22c.06.05.12.13.17.18Z" transform="translate(-170.89 -69.3)" style="fill: #f8f1d2"/>
  <path d="M307.81,105a4.46,4.46,0,0,1-1.83,4l-.36.26a.41.41,0,0,1-.11.07,9.09,9.09,0,0,1-2,.84,16.88,16.88,0,0,1-2.15.53l-1.49.26c-.76.13-1.49.25-2.19.4l-1.06.26s0,0,0,0c-.35.1-.7.2-1,.32a4.23,4.23,0,0,0-.68.17,3.94,3.94,0,0,0-.69.27l-.65.33h0l-.65.38c-.29.17-.59.36-.88.57s-.58.43-.86.67a14.75,14.75,0,0,0-1.57,1.59,9.16,9.16,0,0,0-.67.87s0,0,0,0a10.47,10.47,0,0,0-.55.91h0a8.12,8.12,0,0,0-.43,1c-.06.17-.11.35-.16.52s-.09.34-.13.51c-2.2-3.57-4.25-7.39-4.75-11.3l0,0,.31-.28.51-.48c.6-.43,1.25-.88,1.91-1.3s1.15-.65,1.78-1c1.25-.62,2.61-1.21,4-1.76a47,47,0,0,1,6.25-2l1-.22a22.82,22.82,0,0,1,2.67-.4h.26a15.63,15.63,0,0,1,2.84.23,11,11,0,0,1,1.28.39.54.54,0,0,1,.17.07l.13.06.09,0a2.75,2.75,0,0,1,.7.53c.1.11.2.21.29.33s.17.26.25.39A4.51,4.51,0,0,1,307.81,105Z" transform="translate(-170.89 -69.3)" style="fill: #f8f1d2"/>
  <path d="M343.68,91h0a3.31,3.31,0,0,1-.3.55l-.18.32c-.3.46-.65,1-1,1.5l-.4.54a13.83,13.83,0,0,1-.87,1.09l-.47.55-.49.54c-.43.45-.9.88-1.35,1.3l-.18.16c-.43.39-.86.8-1.26,1.2s-.64.55-1.07.89c-.18.14-.66.48-1.3.88,0,0,0,0,0,0-1.07.71-2.54,1.65-3.6,2.3a67.93,67.93,0,0,1-7.67,4.07l-1.2.53a85.11,85.11,0,0,1-10.14,3.65,34.56,34.56,0,0,0-5.66,2.09l-.24.11-.86.43a18.81,18.81,0,0,0-2.52,1.5c-.44.27-.9.57-1.35.9a17.76,17.76,0,0,0-3.32,3.13l-.5.53a1.81,1.81,0,0,0-.18.21c-.24.29-.51.61-.75.94l-.23.28-.17.25-.05.07-.18.26c-.39.43-.82.91-1.27,1.35l-.35.32-.12.09a4.42,4.42,0,0,1-.52.3l-.09,0a1.2,1.2,0,0,1-.27.08,2.51,2.51,0,0,1-.82.13,3.17,3.17,0,0,1-.53,0,2,2,0,0,1-1-.54,2.28,2.28,0,0,1-.48-.61l-.05-.1a1.92,1.92,0,0,1-.28-.67,2.24,2.24,0,0,1-.06-.85,2.34,2.34,0,0,1,0-.26,3.36,3.36,0,0,1,.13-.48,4.5,4.5,0,0,1,.16-.44,1.42,1.42,0,0,1,.08-.18,0,0,0,0,0,0,0l.07-.14a8.17,8.17,0,0,1,1.23-1.9,7.83,7.83,0,0,1,.74-.78,11.16,11.16,0,0,1,2.38-1.89l.32-.18h0a7,7,0,0,1,2.17-.91,21.27,21.27,0,0,1,2.09-.56l.49-.1c.48-.1,1-.2,1.65-.29a29.55,29.55,0,0,0,3.78-.83,4.49,4.49,0,0,0,.73-.25,9.67,9.67,0,0,0,1.38-.65,3.17,3.17,0,0,0,.86-.56,3.85,3.85,0,0,0,.7-.6h0a5.81,5.81,0,0,0,.58-.81l.12-.16.05-.09c.08-.14.14-.27.2-.4l.06-.08.05-.14c.05-.14.09-.27.13-.41a12.27,12.27,0,0,0,.22-4,15.45,15.45,0,0,0-.57-2.35c-.13-.38-.27-.76-.43-1.13h0a11.21,11.21,0,0,0-.52-1.11l-.69-1.13a10.14,10.14,0,0,1-.65-.9l-.11-.15-.16-.25-1.06-1.31-1.23-1.66c-.59-.75-1.19-1.54-1.93-2.6l.85-.07.2,0a15.82,15.82,0,0,0,1.64-.24,28.09,28.09,0,0,0,5.16-1.45,45.37,45.37,0,0,0,8.48-4.44,39,39,0,0,0,6.18-5c.25-.26.51-.52.75-.78a36.34,36.34,0,0,0,2.77-3.36h0c.24.25.49.5.73.76l.75.78.6.61c1.45,1.54,2.92,3,4.4,4.55.93.94,1.83,1.88,2.75,2.82s2,2.12,3,3.15l.94,1Z" transform="translate(-170.89 -69.3)" style="fill: #f8f1d2"/>
  <circle cx="562.17" cy="438.7" r="49.47" style="fill: none;stroke: #f8f1d2;stroke-miterlimit: 10;stroke-width: 5.65395577977555px"/>
  <g>
    <g>
      <path d="M718.31,467.75c-7.57,5.51-13.34,15.11-15.91,26.54h-10A42.35,42.35,0,0,1,718.31,467.75Z" transform="translate(-170.89 -69.3)" style="fill: #f8f1d2"/>
      <path d="M718.31,467.75c-7.57,5.51-13.34,15.11-15.91,26.54h-10A42.35,42.35,0,0,1,718.31,467.75Z" transform="translate(-170.89 -69.3)" style="fill: #f8f1d2"/>
      <path d="M718.31,467.75c-7.57,5.51-13.34,15.11-15.91,26.54h-10A42.35,42.35,0,0,1,718.31,467.75Z" transform="translate(-170.89 -69.3)" style="fill: #f8f1d2"/>
      <path d="M718.31,467.75c-7.57,5.51-13.34,15.11-15.91,26.54h-10A42.35,42.35,0,0,1,718.31,467.75Z" transform="translate(-170.89 -69.3)" style="fill: #f8f1d2"/>
      <path d="M727.67,465.91c-3.71,5-6.49,15.34-7.66,28.38H704.93C708.4,479.56,717.07,468.74,727.67,465.91Z" transform="translate(-170.89 -69.3)" style="fill: #f8f1d2"/>
      <path d="M727.67,465.91c-3.71,5-6.49,15.34-7.66,28.38H704.93C708.4,479.56,717.07,468.74,727.67,465.91Z" transform="translate(-170.89 -69.3)" style="fill: #f8f1d2"/>
      <path d="M727.67,465.91c-3.71,5-6.49,15.34-7.66,28.38H704.93C708.4,479.56,717.07,468.74,727.67,465.91Z" transform="translate(-170.89 -69.3)" style="fill: #f8f1d2"/>
      <path d="M727.67,465.91c-3.71,5-6.49,15.34-7.66,28.38H704.93C708.4,479.56,717.07,468.74,727.67,465.91Z" transform="translate(-170.89 -69.3)" style="fill: #f8f1d2"/>
      <path d="M761.19,494.29H746.11c-1.17-13-3.94-23.33-7.63-28.38C749.07,468.74,757.74,479.56,761.19,494.29Z" transform="translate(-170.89 -69.3)" style="fill: #f8f1d2"/>
      <path d="M761.19,494.29H746.11c-1.17-13-3.94-23.33-7.63-28.38C749.07,468.74,757.74,479.56,761.19,494.29Z" transform="translate(-170.89 -69.3)" style="fill: #f8f1d2"/>
      <path d="M761.19,494.29H746.11c-1.17-13-3.94-23.33-7.63-28.38C749.07,468.74,757.74,479.56,761.19,494.29Z" transform="translate(-170.89 -69.3)" style="fill: #f8f1d2"/>
      <path d="M761.19,494.29H746.11c-1.17-13-3.94-23.33-7.63-28.38C749.07,468.74,757.74,479.56,761.19,494.29Z" transform="translate(-170.89 -69.3)" style="fill: #f8f1d2"/>
      <path d="M773.72,494.29h-10c-2.56-11.41-8.31-21-15.88-26.53A42.35,42.35,0,0,1,773.72,494.29Z" transform="translate(-170.89 -69.3)" style="fill: #f8f1d2"/>
      <path d="M773.72,494.29h-10c-2.56-11.41-8.31-21-15.88-26.53A42.35,42.35,0,0,1,773.72,494.29Z" transform="translate(-170.89 -69.3)" style="fill: #f8f1d2"/>
      <path d="M773.72,494.29h-10c-2.56-11.41-8.31-21-15.88-26.53A42.35,42.35,0,0,1,773.72,494.29Z" transform="translate(-170.89 -69.3)" style="fill: #f8f1d2"/>
      <path d="M773.72,494.29h-10c-2.56-11.41-8.31-21-15.88-26.53A42.35,42.35,0,0,1,773.72,494.29Z" transform="translate(-170.89 -69.3)" style="fill: #f8f1d2"/>
    </g>
    <g>
      <path d="M718.14,548.36a42.05,42.05,0,0,1-24.65-23.63h9.61C705.94,535,711.26,543.31,718.14,548.36Z" transform="translate(-170.89 -69.3)" style="fill: #f8f1d2"/>
      <path d="M718.14,548.36a42.05,42.05,0,0,1-24.65-23.63h9.61C705.94,535,711.26,543.31,718.14,548.36Z" transform="translate(-170.89 -69.3)" style="fill: #f8f1d2"/>
      <path d="M718.14,548.36a42.05,42.05,0,0,1-24.65-23.63h9.61C705.94,535,711.26,543.31,718.14,548.36Z" transform="translate(-170.89 -69.3)" style="fill: #f8f1d2"/>
      <path d="M718.14,548.36a42.05,42.05,0,0,1-24.65-23.63h9.61C705.94,535,711.26,543.31,718.14,548.36Z" transform="translate(-170.89 -69.3)" style="fill: #f8f1d2"/>
      <path d="M728.11,550.43c-10-2.42-18.52-12.21-22.44-25.7h14.67C721.74,536.94,724.49,546,728.11,550.43Z" transform="translate(-170.89 -69.3)" style="fill: #f8f1d2"/>
      <path d="M728.11,550.43c-10-2.42-18.52-12.21-22.44-25.7h14.67C721.74,536.94,724.49,546,728.11,550.43Z" transform="translate(-170.89 -69.3)" style="fill: #f8f1d2"/>
      <path d="M728.11,550.43c-10-2.42-18.52-12.21-22.44-25.7h14.67C721.74,536.94,724.49,546,728.11,550.43Z" transform="translate(-170.89 -69.3)" style="fill: #f8f1d2"/>
      <path d="M728.11,550.43c-10-2.42-18.52-12.21-22.44-25.7h14.67C721.74,536.94,724.49,546,728.11,550.43Z" transform="translate(-170.89 -69.3)" style="fill: #f8f1d2"/>
      <path d="M743.31,524.73c-1.82,15.36-6,26.08-10.25,26.08s-8.43-10.72-10.24-26.08Z" transform="translate(-170.89 -69.3)" style="fill: #f8f1d2"/>
      <path d="M743.31,524.73c-1.82,15.36-6,26.08-10.25,26.08s-8.43-10.72-10.24-26.08Z" transform="translate(-170.89 -69.3)" style="fill: #f8f1d2"/>
      <path d="M743.31,524.73c-1.82,15.36-6,26.08-10.25,26.08s-8.43-10.72-10.24-26.08Z" transform="translate(-170.89 -69.3)" style="fill: #f8f1d2"/>
      <path d="M743.31,524.73c-1.82,15.36-6,26.08-10.25,26.08s-8.43-10.72-10.24-26.08Z" transform="translate(-170.89 -69.3)" style="fill: #f8f1d2"/>
      <path d="M760.45,524.73C756.53,538.23,748,548,738,550.43c3.62-4.41,6.37-13.49,7.78-25.7Z" transform="translate(-170.89 -69.3)" style="fill: #f8f1d2"/>
      <path d="M760.45,524.73C756.53,538.23,748,548,738,550.43c3.62-4.41,6.37-13.49,7.78-25.7Z" transform="translate(-170.89 -69.3)" style="fill: #f8f1d2"/>
      <path d="M760.45,524.73C756.53,538.23,748,548,738,550.43c3.62-4.41,6.37-13.49,7.78-25.7Z" transform="translate(-170.89 -69.3)" style="fill: #f8f1d2"/>
      <path d="M760.45,524.73C756.53,538.23,748,548,738,550.43c3.62-4.41,6.37-13.49,7.78-25.7Z" transform="translate(-170.89 -69.3)" style="fill: #f8f1d2"/>
      <path d="M772.64,524.73A42.14,42.14,0,0,1,748,548.35c6.85-5.05,12.16-13.39,15-23.62Z" transform="translate(-170.89 -69.3)" style="fill: #f8f1d2"/>
      <path d="M772.64,524.73A42.14,42.14,0,0,1,748,548.35c6.85-5.05,12.16-13.39,15-23.62Z" transform="translate(-170.89 -69.3)" style="fill: #f8f1d2"/>
      <path d="M772.64,524.73A42.14,42.14,0,0,1,748,548.35c6.85-5.05,12.16-13.39,15-23.62Z" transform="translate(-170.89 -69.3)" style="fill: #f8f1d2"/>
      <path d="M772.64,524.73A42.14,42.14,0,0,1,748,548.35c6.85-5.05,12.16-13.39,15-23.62Z" transform="translate(-170.89 -69.3)" style="fill: #f8f1d2"/>
    </g>
    <g>
      <path d="M728.11,550.43c-10-2.42-18.52-12.21-22.44-25.7h14.67C721.74,536.94,724.49,546,728.11,550.43Z" transform="translate(-170.89 -69.3)" style="fill: #f8f1d2"/>
      <path d="M728.11,550.43c-10-2.42-18.52-12.21-22.44-25.7h14.67C721.74,536.94,724.49,546,728.11,550.43Z" transform="translate(-170.89 -69.3)" style="fill: #f8f1d2"/>
      <path d="M728.11,550.43c-10-2.42-18.52-12.21-22.44-25.7h14.67C721.74,536.94,724.49,546,728.11,550.43Z" transform="translate(-170.89 -69.3)" style="fill: #f8f1d2"/>
      <path d="M728.11,550.43c-10-2.42-18.52-12.21-22.44-25.7h14.67C721.74,536.94,724.49,546,728.11,550.43Z" transform="translate(-170.89 -69.3)" style="fill: #f8f1d2"/>
      <path d="M743.31,524.73c-1.82,15.36-6,26.08-10.25,26.08s-8.43-10.72-10.24-26.08Z" transform="translate(-170.89 -69.3)" style="fill: #f8f1d2"/>
      <path d="M743.31,524.73c-1.82,15.36-6,26.08-10.25,26.08s-8.43-10.72-10.24-26.08Z" transform="translate(-170.89 -69.3)" style="fill: #f8f1d2"/>
      <path d="M743.31,524.73c-1.82,15.36-6,26.08-10.25,26.08s-8.43-10.72-10.24-26.08Z" transform="translate(-170.89 -69.3)" style="fill: #f8f1d2"/>
      <path d="M743.31,524.73c-1.82,15.36-6,26.08-10.25,26.08s-8.43-10.72-10.24-26.08Z" transform="translate(-170.89 -69.3)" style="fill: #f8f1d2"/>
      <path d="M760.45,524.73C756.53,538.23,748,548,738,550.43c3.62-4.41,6.37-13.49,7.78-25.7Z" transform="translate(-170.89 -69.3)" style="fill: #f8f1d2"/>
      <path d="M760.45,524.73C756.53,538.23,748,548,738,550.43c3.62-4.41,6.37-13.49,7.78-25.7Z" transform="translate(-170.89 -69.3)" style="fill: #f8f1d2"/>
      <path d="M760.45,524.73C756.53,538.23,748,548,738,550.43c3.62-4.41,6.37-13.49,7.78-25.7Z" transform="translate(-170.89 -69.3)" style="fill: #f8f1d2"/>
      <path d="M760.45,524.73C756.53,538.23,748,548,738,550.43c3.62-4.41,6.37-13.49,7.78-25.7Z" transform="translate(-170.89 -69.3)" style="fill: #f8f1d2"/>
    </g>
    <g>
      <path d="M727.67,465.91c-3.71,5-6.49,15.34-7.66,28.38H704.93C708.4,479.56,717.07,468.74,727.67,465.91Z" transform="translate(-170.89 -69.3)" style="fill: #f8f1d2"/>
      <path d="M727.67,465.91c-3.71,5-6.49,15.34-7.66,28.38H704.93C708.4,479.56,717.07,468.74,727.67,465.91Z" transform="translate(-170.89 -69.3)" style="fill: #f8f1d2"/>
      <path d="M727.67,465.91c-3.71,5-6.49,15.34-7.66,28.38H704.93C708.4,479.56,717.07,468.74,727.67,465.91Z" transform="translate(-170.89 -69.3)" style="fill: #f8f1d2"/>
      <path d="M727.67,465.91c-3.71,5-6.49,15.34-7.66,28.38H704.93C708.4,479.56,717.07,468.74,727.67,465.91Z" transform="translate(-170.89 -69.3)" style="fill: #f8f1d2"/>
      <path d="M761.19,494.29H746.11c-1.17-13-3.94-23.33-7.63-28.38C749.07,468.74,757.74,479.56,761.19,494.29Z" transform="translate(-170.89 -69.3)" style="fill: #f8f1d2"/>
      <path d="M761.19,494.29H746.11c-1.17-13-3.94-23.33-7.63-28.38C749.07,468.74,757.74,479.56,761.19,494.29Z" transform="translate(-170.89 -69.3)" style="fill: #f8f1d2"/>
      <path d="M761.19,494.29H746.11c-1.17-13-3.94-23.33-7.63-28.38C749.07,468.74,757.74,479.56,761.19,494.29Z" transform="translate(-170.89 -69.3)" style="fill: #f8f1d2"/>
      <path d="M761.19,494.29H746.11c-1.17-13-3.94-23.33-7.63-28.38C749.07,468.74,757.74,479.56,761.19,494.29Z" transform="translate(-170.89 -69.3)" style="fill: #f8f1d2"/>
    </g>
    <g>
      <path d="M743.31,524.73c-1.82,15.36-6,26.08-10.25,26.08s-8.43-10.72-10.24-26.08Z" transform="translate(-170.89 -69.3)" style="fill: #f8f1d2"/>
      <path d="M743.31,524.73c-1.82,15.36-6,26.08-10.25,26.08s-8.43-10.72-10.24-26.08Z" transform="translate(-170.89 -69.3)" style="fill: #f8f1d2"/>
      <path d="M743.31,524.73c-1.82,15.36-6,26.08-10.25,26.08s-8.43-10.72-10.24-26.08Z" transform="translate(-170.89 -69.3)" style="fill: #f8f1d2"/>
      <path d="M743.31,524.73c-1.82,15.36-6,26.08-10.25,26.08s-8.43-10.72-10.24-26.08Z" transform="translate(-170.89 -69.3)" style="fill: #f8f1d2"/>
    </g>
    <g>
      <path d="M743.63,494.29H722.49c1.44-15.62,5.28-27.32,9.58-29.11l.16-.07a2.72,2.72,0,0,1,.84-.13,2.08,2.08,0,0,1,.77.12l.22.08C738.36,467,742.2,478.66,743.63,494.29Z" transform="translate(-170.89 -69.3)" style="fill: #f8f1d2"/>
      <path d="M743.63,494.29H722.49c1.44-15.62,5.28-27.32,9.58-29.11l.16-.07a2.72,2.72,0,0,1,.84-.13,2.08,2.08,0,0,1,.77.12l.22.08C738.36,467,742.2,478.66,743.63,494.29Z" transform="translate(-170.89 -69.3)" style="fill: #f8f1d2"/>
      <path d="M743.63,494.29H722.49c1.44-15.62,5.28-27.32,9.58-29.11l.16-.07a2.72,2.72,0,0,1,.84-.13,2.08,2.08,0,0,1,.77.12l.22.08C738.36,467,742.2,478.66,743.63,494.29Z" transform="translate(-170.89 -69.3)" style="fill: #f8f1d2"/>
      <path d="M743.63,494.29H722.49c1.44-15.62,5.28-27.32,9.58-29.11l.16-.07a2.72,2.72,0,0,1,.84-.13,2.08,2.08,0,0,1,.77.12l.22.08C738.36,467,742.2,478.66,743.63,494.29Z" transform="translate(-170.89 -69.3)" style="fill: #f8f1d2"/>
    </g>
  </g>
  <path d="M722.3,516.84l0,0,0,0Z" transform="translate(-170.89 -69.3)" style="fill: #1e1e1e"/>
  <g>
    <path d="M754.06,498.1v4.7h-8.41a7.07,7.07,0,0,0-7.06,6.81h0v.5h0a11.73,11.73,0,0,1-2.35,6.8,11.54,11.54,0,0,1-1.18,1.34,11.76,11.76,0,0,1-15.26,1,9.63,9.63,0,0,0,1.74-4.74,7.07,7.07,0,0,0,11.17-.77,7,7,0,0,0,1.18-3.68v-.48a1.93,1.93,0,0,0,0-.24.34.34,0,0,1,0-.1v-.16a.49.49,0,0,0,0-.12c0-.05,0-.11,0-.16v-.15s0-.08,0-.12,0-.05,0-.07,0-.06,0-.1h0v0a.68.68,0,0,0,0-.14l0-.2,0-.15v0s0-.05,0-.07l0-.08,0-.16a.36.36,0,0,1,0-.1l0-.12,0-.15,0-.11v0a.57.57,0,0,0,0-.14l0-.08a.64.64,0,0,0,0-.07c0-.05,0-.09,0-.14s0-.09,0-.14,0,0,0-.06a.49.49,0,0,1,0-.11l0-.12.08-.23s0-.09.05-.14l0-.09s0-.08,0-.12l0-.07a.61.61,0,0,1,0-.12v0a.14.14,0,0,0,0-.06h0c0-.06.05-.11.07-.17h0l.09-.2c.06-.14.13-.27.19-.4s.07-.14.11-.2a1.28,1.28,0,0,1,.11-.2,2,2,0,0,1,.11-.2,1.74,1.74,0,0,1,.11-.18h0l.09-.14,0-.07,0-.06,0,0c0-.07.09-.13.13-.19l.06-.09a.83.83,0,0,0,.08-.12l.06-.08.09-.12h0a11.85,11.85,0,0,1,9.41-4.71h8.41Z" transform="translate(-170.89 -69.3)" style="fill: #f8f1d2"/>
    <path d="M708.78,513.73v.06h0Z" transform="translate(-170.89 -69.3)" style="fill: #f8f1d2"/>
    <path d="M745.84,502.8h0Z" transform="translate(-170.89 -69.3)" style="fill: #f8f1d2"/>
    <rect x="585.56" y="428.77" width="16.57" height="4.7" style="fill: #f8f1d2"/>
    <rect x="585.56" y="438.22" width="16.57" height="4.7" style="fill: #f8f1d2"/>
    <rect x="585.56" y="447.63" width="16.57" height="4.7" style="fill: #f8f1d2"/>
    <path d="M754.06,516.93v4.7h-8.41a11.77,11.77,0,0,1-8.24-3.37,13.47,13.47,0,0,0,2.36-4.48,7,7,0,0,0,5.88,3.15h8.41Z" transform="translate(-170.89 -69.3)" style="fill: #f8f1d2"/>
    <path d="M708.78,513.73v.06h0Z" transform="translate(-170.89 -69.3)" style="fill: #f8f1d2"/>
    <path d="M735.07,501.46a13.49,13.49,0,0,0-2.35,4.49,7.07,7.07,0,0,0-12.79,2.35,6.9,6.9,0,0,0-.16,1.29v4.2a7.81,7.81,0,0,1-1.31,4.34,8,8,0,0,1-3.39,2.85,7.88,7.88,0,0,1-8.67-1.62A7.84,7.84,0,0,1,693.11,514c0-.1,0-.2,0-.3V498.29h4.7v15.44a3.14,3.14,0,1,0,6.28,0V498.05h4.7v15.74h0a3.15,3.15,0,0,0,6.29,0v-3.93a12,12,0,0,1,.4-3.07,10.91,10.91,0,0,1,.65-1.79,11.77,11.77,0,0,1,19-3.54Z" transform="translate(-170.89 -69.3)" style="fill: #f8f1d2"/>
  </g>
  <g>
    <path d="M568.69,508.79v1.47a23.31,23.31,0,0,1-.47,4.69,23.41,23.41,0,1,1-.4-11h-10a14.05,14.05,0,1,0-.51,13.6h-12v-8.73Z" transform="translate(-170.89 -69.3)" style="fill: #f8f1d2"/>
    <path d="M511.86,533.43l.07.2H502L498.82,525l-.25-.68c-.36,0-.73,0-1.1,0H483.84l1.59-4.35,1.8-5h10.21a9.39,9.39,0,0,0,.88-18.73,8.51,8.51,0,0,0-.88,0h-3.38l2.13-5.85,1.27-3.5a18.7,18.7,0,0,1,10,34.49Z" transform="translate(-170.89 -69.3)" style="fill: #f8f1d2"/>
    <polygon points="318.17 417.63 318.09 417.83 313.42 430.68 311.51 435.92 311.51 435.92 307.94 445.71 306.83 448.76 304.54 455.07 301.13 464.44 291.09 464.44 274.06 417.63 284.01 417.63 294.59 446.69 296.11 450.86 297.63 446.69 302.3 433.84 305.04 426.34 308.2 417.63 318.17 417.63" style="fill: #f8f1d2"/>
    <path d="M423.86,486.93H405.31v9.31h18.38a9.39,9.39,0,0,1,.17,18.77h-4.64v-9.46h-9.3v28.08h9.3v-9.31h4.36a18.7,18.7,0,0,0,.28-37.39Z" transform="translate(-170.89 -69.3)" style="fill: #f8f1d2"/>
  </g>
  <path d="M774.5,150.36a5.3,5.3,0,1,0,5.81,5.81A5.32,5.32,0,0,0,774.5,150.36ZM748,123.89a5.3,5.3,0,1,0,5.81,5.81A5.31,5.31,0,0,0,748,123.89Zm5.81,31.2A5.3,5.3,0,1,0,748,160.9,5.32,5.32,0,0,0,753.84,155.09Zm26.47-26.47a5.3,5.3,0,1,0-5.81,5.81A5.32,5.32,0,0,0,780.31,128.62ZM707.7,109.47a5.3,5.3,0,1,0,5.3,5.3A5.3,5.3,0,0,0,707.7,109.47ZM733.63,83a5.3,5.3,0,1,0,5.81,5.81A5.3,5.3,0,0,0,733.63,83Zm-7.42,18a5.3,5.3,0,1,0-5.81,5.81A5.31,5.31,0,0,0,726.21,101Zm54.1,27.63a5.3,5.3,0,1,0-5.81,5.81A5.32,5.32,0,0,0,780.31,128.62Zm-5.81,21.74a5.3,5.3,0,1,0,5.81,5.81A5.32,5.32,0,0,0,774.5,150.36ZM748,123.89a5.3,5.3,0,1,0,5.81,5.81A5.31,5.31,0,0,0,748,123.89Zm5.81,31.2A5.3,5.3,0,1,0,748,160.9,5.32,5.32,0,0,0,753.84,155.09ZM733.63,83a5.3,5.3,0,1,0,5.81,5.81A5.3,5.3,0,0,0,733.63,83Zm-7.42,18a5.3,5.3,0,1,0-5.81,5.81A5.31,5.31,0,0,0,726.21,101Zm-18.51,8.48a5.3,5.3,0,1,0,5.3,5.3A5.3,5.3,0,0,0,707.7,109.47Zm72.61,19.15a5.3,5.3,0,1,0-5.81,5.81A5.32,5.32,0,0,0,780.31,128.62Zm-5.81,21.74a5.3,5.3,0,1,0,5.81,5.81A5.32,5.32,0,0,0,774.5,150.36ZM748,123.89a5.3,5.3,0,1,0,5.81,5.81A5.31,5.31,0,0,0,748,123.89Zm5.81,31.2A5.3,5.3,0,1,0,748,160.9,5.32,5.32,0,0,0,753.84,155.09ZM733.63,83a5.3,5.3,0,1,0,5.81,5.81A5.3,5.3,0,0,0,733.63,83Zm-7.42,18a5.3,5.3,0,1,0-5.81,5.81A5.31,5.31,0,0,0,726.21,101Zm-18.51,8.48a5.3,5.3,0,1,0,5.3,5.3A5.3,5.3,0,0,0,707.7,109.47Zm0,0a5.3,5.3,0,1,0,5.3,5.3A5.3,5.3,0,0,0,707.7,109.47ZM726.21,101a5.3,5.3,0,1,0-5.81,5.81A5.31,5.31,0,0,0,726.21,101Zm7.42-18a5.3,5.3,0,1,0,5.81,5.81A5.3,5.3,0,0,0,733.63,83Zm20.21,72.06A5.3,5.3,0,1,0,748,160.9,5.32,5.32,0,0,0,753.84,155.09ZM748,123.89a5.3,5.3,0,1,0,5.81,5.81A5.31,5.31,0,0,0,748,123.89Zm26.47,26.47a5.3,5.3,0,1,0,5.81,5.81A5.32,5.32,0,0,0,774.5,150.36Zm5.81-21.74a5.3,5.3,0,1,0-5.81,5.81A5.32,5.32,0,0,0,780.31,128.62Zm0,0a5.3,5.3,0,1,0-5.81,5.81A5.32,5.32,0,0,0,780.31,128.62Zm-5.81,21.74a5.3,5.3,0,1,0,5.81,5.81A5.32,5.32,0,0,0,774.5,150.36ZM748,123.89a5.3,5.3,0,1,0,5.81,5.81A5.31,5.31,0,0,0,748,123.89Zm5.81,31.2A5.3,5.3,0,1,0,748,160.9,5.32,5.32,0,0,0,753.84,155.09ZM707.7,109.47a5.3,5.3,0,1,0,5.3,5.3A5.3,5.3,0,0,0,707.7,109.47ZM726.21,101a5.3,5.3,0,1,0-5.81,5.81A5.31,5.31,0,0,0,726.21,101Zm7.42-18a5.3,5.3,0,1,0,5.81,5.81A5.3,5.3,0,0,0,733.63,83Zm20.21,72.06A5.3,5.3,0,1,0,748,160.9,5.32,5.32,0,0,0,753.84,155.09ZM748,123.89a5.3,5.3,0,1,0,5.81,5.81A5.31,5.31,0,0,0,748,123.89Zm26.47,26.47a5.3,5.3,0,1,0,5.81,5.81A5.32,5.32,0,0,0,774.5,150.36Zm5.81-21.74a5.3,5.3,0,1,0-5.81,5.81A5.32,5.32,0,0,0,780.31,128.62Zm-5.81,5.81a5.3,5.3,0,1,0-4.73-4.73A5.3,5.3,0,0,0,774.5,134.43Zm0,15.93a5.3,5.3,0,1,0,5.81,5.81A5.32,5.32,0,0,0,774.5,150.36ZM748,123.89a5.3,5.3,0,1,0,5.81,5.81A5.31,5.31,0,0,0,748,123.89Zm1.08,26.47a5.3,5.3,0,1,0,4.73,4.73A5.3,5.3,0,0,0,749.11,150.36Zm42.72-40.19H731.78a2.2,2.2,0,0,0-2.21,2.2v60a2.2,2.2,0,0,0,2.21,2.2h60.05a2.19,2.19,0,0,0,2.2-2.2v-60A2.19,2.19,0,0,0,791.83,110.17ZM785,165.55H738.65V119.24H785ZM774.5,134.43a5.3,5.3,0,1,0-4.73-4.73A5.3,5.3,0,0,0,774.5,134.43Zm1.08,26.47a5.3,5.3,0,1,0-5.81-5.81A5.32,5.32,0,0,0,775.58,160.9Zm-26.47-26.47a5.3,5.3,0,1,0-5.81-5.81A5.32,5.32,0,0,0,749.11,134.43ZM748,160.9a5.3,5.3,0,1,0-4.73-4.73A5.3,5.3,0,0,0,748,160.9Zm5.81-5.81A5.3,5.3,0,1,0,748,160.9,5.32,5.32,0,0,0,753.84,155.09ZM748,123.89a5.3,5.3,0,1,0,5.81,5.81A5.31,5.31,0,0,0,748,123.89Zm26.47,26.47a5.3,5.3,0,1,0,5.81,5.81A5.32,5.32,0,0,0,774.5,150.36Zm5.81-21.74a5.3,5.3,0,1,0-5.81,5.81A5.32,5.32,0,0,0,780.31,128.62Zm0,0a5.3,5.3,0,1,0-5.81,5.81A5.32,5.32,0,0,0,780.31,128.62Zm-5.81,21.74a5.3,5.3,0,1,0,5.81,5.81A5.32,5.32,0,0,0,774.5,150.36ZM748,123.89a5.3,5.3,0,1,0,5.81,5.81A5.31,5.31,0,0,0,748,123.89Zm5.81,31.2A5.3,5.3,0,1,0,748,160.9,5.32,5.32,0,0,0,753.84,155.09ZM751,69.3H690.91a2.21,2.21,0,0,0-2.2,2.2v60.05a2.2,2.2,0,0,0,2.2,2.21h31.67v-9.08H697.79V78.38h46.3v24.79h9.08V71.5A2.22,2.22,0,0,0,751,69.3ZM707.7,109.47a5.3,5.3,0,1,0,5.3,5.3A5.3,5.3,0,0,0,707.7,109.47ZM726.21,101a5.3,5.3,0,1,0-5.81,5.81A5.31,5.31,0,0,0,726.21,101Zm7.42-18a5.3,5.3,0,1,0,5.81,5.81A5.3,5.3,0,0,0,733.63,83Zm20.21,72.06A5.3,5.3,0,1,0,748,160.9,5.32,5.32,0,0,0,753.84,155.09ZM748,123.89a5.3,5.3,0,1,0,5.81,5.81A5.31,5.31,0,0,0,748,123.89Zm26.47,26.47a5.3,5.3,0,1,0,5.81,5.81A5.32,5.32,0,0,0,774.5,150.36Zm5.81-21.74a5.3,5.3,0,1,0-5.81,5.81A5.32,5.32,0,0,0,780.31,128.62Z" transform="translate(-170.89 -69.3)" style="fill: #f8f1d2"/>
  <g>
    <rect x="74.85" y="394.95" width="9.11" height="15.99" style="fill: #f8f1d2"/>
    <path d="M256.46,541.4a8,8,0,0,1-7.6,8h-8.39a42.58,42.58,0,1,1,0-85.15v16a26.59,26.59,0,0,0,0,53.18h8.39A8,8,0,0,1,256.46,541.4Z" transform="translate(-170.89 -69.3)" style="fill: #f8f1d2"/>
    <g>
      <path d="M226.29,542.29a1.42,1.42,0,0,1-.62.11,1.08,1.08,0,0,1-1.14-1.17,1.16,1.16,0,0,1,1.21-1.22,1.23,1.23,0,0,1,.55.11l-.07.24a1.23,1.23,0,0,0-.47-.09.85.85,0,0,0-.9,1,.84.84,0,0,0,.89.93,1.14,1.14,0,0,0,.48-.1Z" transform="translate(-170.89 -69.3)" style="fill: #f8f1d2"/>
      <path d="M226.64,541.22a4.27,4.27,0,0,0,0-.52h.27V541h0a.51.51,0,0,1,.46-.36h.09V541h-.1a.42.42,0,0,0-.41.39.61.61,0,0,0,0,.14v.89h-.3Z" transform="translate(-170.89 -69.3)" style="fill: #f8f1d2"/>
      <path d="M227.9,541.59a.52.52,0,0,0,.56.58,1,1,0,0,0,.46-.09l.06.22a1.36,1.36,0,0,1-.56.1.77.77,0,0,1-.81-.84.8.8,0,0,1,.78-.89.7.7,0,0,1,.68.78.53.53,0,0,1,0,.14Zm.88-.22a.43.43,0,0,0-.42-.49.5.5,0,0,0-.46.49Z" transform="translate(-170.89 -69.3)" style="fill: #f8f1d2"/>
      <path d="M230.37,542.37l0-.21h0a.61.61,0,0,1-.51.24.46.46,0,0,1-.5-.47c0-.4.35-.62,1-.62v0a.34.34,0,0,0-.38-.38.9.9,0,0,0-.44.12l-.06-.2a1.08,1.08,0,0,1,.54-.14c.51,0,.63.34.63.68V542a2.5,2.5,0,0,0,0,.4Zm-.05-.85c-.33,0-.7.05-.7.37a.26.26,0,0,0,.28.29.4.4,0,0,0,.4-.28.15.15,0,0,0,0-.09Z" transform="translate(-170.89 -69.3)" style="fill: #f8f1d2"/>
      <path d="M231.45,540.23v.47h.43v.23h-.43v.9c0,.21.06.32.23.32l.17,0,0,.23a.85.85,0,0,1-.27,0,.4.4,0,0,1-.33-.13.63.63,0,0,1-.11-.43v-.91h-.26v-.23h.26v-.39Z" transform="translate(-170.89 -69.3)" style="fill: #f8f1d2"/>
      <path d="M232.37,541.59a.54.54,0,0,0,.57.58,1,1,0,0,0,.46-.09l0,.22a1.3,1.3,0,0,1-.55.1.78.78,0,0,1-.82-.84.8.8,0,0,1,.78-.89.7.7,0,0,1,.69.78c0,.06,0,.11,0,.14Zm.89-.22a.43.43,0,0,0-.42-.49.51.51,0,0,0-.47.49Z" transform="translate(-170.89 -69.3)" style="fill: #f8f1d2"/>
      <path d="M235.36,539.93v2c0,.14,0,.31,0,.43h-.27v-.29h0a.62.62,0,0,1-.57.32.76.76,0,0,1-.71-.84.8.8,0,0,1,.75-.89.57.57,0,0,1,.5.25h0v-1Zm-.3,1.45a.59.59,0,0,0,0-.13.44.44,0,0,0-.43-.35c-.32,0-.5.28-.5.65s.16.61.49.61a.45.45,0,0,0,.44-.36.51.51,0,0,0,0-.13Z" transform="translate(-170.89 -69.3)" style="fill: #f8f1d2"/>
      <path d="M236.57,542.37c0-.12,0-.29,0-.43v-2h.29v1h0a.63.63,0,0,1,.57-.3.74.74,0,0,1,.7.84.79.79,0,0,1-.75.89.58.58,0,0,1-.55-.31h0l0,.28Zm.31-.67a.36.36,0,0,0,0,.11.46.46,0,0,0,.45.35c.32,0,.51-.25.51-.63s-.18-.62-.5-.62a.48.48,0,0,0-.46.37.37.37,0,0,0,0,.12Z" transform="translate(-170.89 -69.3)" style="fill: #f8f1d2"/>
      <path d="M238.62,540.7l.37,1c0,.11.08.24.11.34h0l.11-.35.33-1h.32l-.46,1.19a2.42,2.42,0,0,1-.57,1,.72.72,0,0,1-.37.19l-.07-.25a.71.71,0,0,0,.26-.15.93.93,0,0,0,.26-.33.31.31,0,0,0,0-.08l0-.07-.61-1.54Z" transform="translate(-170.89 -69.3)" style="fill: #f8f1d2"/>
      <path d="M241.17,540.05v2.32h-.3v-2.32Z" transform="translate(-170.89 -69.3)" style="fill: #f8f1d2"/>
      <path d="M241.83,540.7l.32.94c.06.15.1.29.14.42h0c0-.13.08-.27.14-.42l.32-.94h.32l-.66,1.67h-.28l-.64-1.67Z" transform="translate(-170.89 -69.3)" style="fill: #f8f1d2"/>
      <path d="M244.27,542.37l0-.21h0a.61.61,0,0,1-.5.24.47.47,0,0,1-.51-.47c0-.4.35-.62,1-.62v0a.34.34,0,0,0-.38-.38.83.83,0,0,0-.43.12l-.07-.2a1.08,1.08,0,0,1,.54-.14c.51,0,.63.34.63.68V542a2.5,2.5,0,0,0,0,.4Zm-.05-.85c-.33,0-.7.05-.7.37a.26.26,0,0,0,.28.29.43.43,0,0,0,.41-.28.28.28,0,0,0,0-.09Z" transform="translate(-170.89 -69.3)" style="fill: #f8f1d2"/>
      <path d="M245,541.15c0-.17,0-.31,0-.45h.27V541h0a.6.6,0,0,1,.55-.31c.23,0,.59.13.59.7v1h-.31v-1c0-.27-.1-.49-.38-.49a.44.44,0,0,0-.41.31.52.52,0,0,0,0,.14v1H245Z" transform="translate(-170.89 -69.3)" style="fill: #f8f1d2"/>
      <path d="M247.64,540.05h.3v2.07h1v.25h-1.29Z" transform="translate(-170.89 -69.3)" style="fill: #f8f1d2"/>
      <path d="M250.59,541.91c0,.17,0,.33,0,.46h-.27l0-.27h0a.64.64,0,0,1-.55.3c-.26,0-.58-.14-.58-.72v-1h.3v.92c0,.32.1.53.38.53a.42.42,0,0,0,.39-.27.41.41,0,0,0,0-.16v-1h.3Z" transform="translate(-170.89 -69.3)" style="fill: #f8f1d2"/>
      <path d="M252.48,541.91c0,.17,0,.33,0,.46h-.27l0-.27h0a.64.64,0,0,1-.55.3c-.26,0-.58-.14-.58-.72v-1h.31v.92c0,.32.09.53.37.53a.45.45,0,0,0,.4-.27.78.78,0,0,0,0-.16v-1h.3Z" transform="translate(-170.89 -69.3)" style="fill: #f8f1d2"/>
    </g>
  </g>
  <g>
    <path d="M993.47,134.54c.44.41.23.92.11,1.39a9.51,9.51,0,0,1-2,3.43,49.53,49.53,0,0,1-4.21,4.83,82.25,82.25,0,0,1-11.06,9.16,37.62,37.62,0,0,1-9.86,4.72,62.85,62.85,0,0,1-6.71,2,4,4,0,0,1-1.81.06.89.89,0,0,1-.53-1.48c.52-.69,1.12-1.31,1.58-2a6,6,0,0,0,.63-1.24c.25-.72-.1-1.15-.85-1a9.26,9.26,0,0,0-1.26.31,32.11,32.11,0,0,1-5.41,1c-2.63.31-5.28.44-7.93.52-1.37.05-2.74.15-4.11.13a32.65,32.65,0,0,1-8.12-.82,15.54,15.54,0,0,1-3.64-1.32c-.59-.34-.66-.59-.27-1.13a11.18,11.18,0,0,0,1.83-5.19,1.15,1.15,0,0,0-1.5-1.34,17.3,17.3,0,0,0-5.13,2.21,17.83,17.83,0,0,0-2.54,1.78,2.73,2.73,0,0,1-.68.44c-.63.31-1,.14-1.19-.53a29.45,29.45,0,0,1-.83-4.76,25.33,25.33,0,0,1,2.58-13.48A28.18,28.18,0,0,1,925,125.4a28.92,28.92,0,0,1,7-5.78l.13-.08c.27-.17.56-.39.48-.75s-.47-.39-.79-.41a19.09,19.09,0,0,0-3.62.22,9.86,9.86,0,0,1-1.62.15.82.82,0,0,1-.83-1.06A4.28,4.28,0,0,1,927,115.5a34,34,0,0,1,5.64-4.79c3.17-2.28,6.5-4.32,9.82-6.35.73-.44,1.48-.82,2.23-1.23,1.36-.63,2.71-1.29,4.08-1.89a64.3,64.3,0,0,1,17-5,40.75,40.75,0,0,1,18.52,1.29,19,19,0,0,1,6.1,2.94,17.42,17.42,0,0,1,5.79,8.57c2.54,8,1.3,15.42-4,22-.1.12-.25.22-.2.41a.67.67,0,0,0-.39.26c-.58.75-1.35,1.31-1.94,2-.21.26-.58.54-.37.91s.65.24,1,.2a10,10,0,0,0,1.76-.47C992.5,134.32,993,134.12,993.47,134.54Z" transform="translate(-170.89 -69.3)" style="fill: #f8f1d2"/>
    <path d="M1028,71.54a17.45,17.45,0,0,1-2.85,5.66,82.88,82.88,0,0,1-9,10.69,119.13,119.13,0,0,1-16.1,13.74,7.48,7.48,0,0,1-.84.54,2.3,2.3,0,0,1-2.83-.37,7.34,7.34,0,0,1-1.14-1.47,13.19,13.19,0,0,0-6.64-5.28,1.5,1.5,0,0,1-.66-2.51A25.35,25.35,0,0,1,993,88c1.14-.79,2.16-1.75,3.24-2.63a115.07,115.07,0,0,1,16.21-10.89,47.38,47.38,0,0,1,8.73-4.12,21.34,21.34,0,0,1,2.5-.65,15.7,15.7,0,0,1,2.56-.31C1028.19,69.2,1028.4,70.05,1028,71.54Z" transform="translate(-170.89 -69.3)" style="fill: #f8f1d2"/>
    <path d="M1000.55,73.28a10.06,10.06,0,0,1-2,2.46c-2.57,2.68-5.44,5-8.17,7.53a36.72,36.72,0,0,0-6.92,8.1c-1,1.64-2.45,2-4.21,1.71a44.31,44.31,0,0,0-8.8-.34,27.53,27.53,0,0,1-4.44,0c-1.64-.18-2.28-1.26-1.65-2.77a5.64,5.64,0,0,1,.9-1.41,23.85,23.85,0,0,1,3.61-3.42c2.47-2,4.84-4.09,7.48-5.83a72,72,0,0,1,15.42-7.59,21,21,0,0,1,4.45-1.3,6.37,6.37,0,0,1,3.48.34A1.69,1.69,0,0,1,1000.55,73.28Z" transform="translate(-170.89 -69.3)" style="fill: #f8f1d2"/>
    <path d="M1024.29,98.46a2.79,2.79,0,0,1-.67,1.76,33.94,33.94,0,0,1-3.72,4.31,85.94,85.94,0,0,1-11.29,9c-1.28.89-2.53,1.83-3.85,2.67a5.9,5.9,0,0,1-1.76.87,2.15,2.15,0,0,1-2.83-2.1c0-.65,0-1.31,0-2a20.86,20.86,0,0,0-.73-5.21,1.91,1.91,0,0,1,1.06-2.53c3-1.28,5.65-3,8.53-4.43a51.67,51.67,0,0,1,9.8-3.81,9,9,0,0,1,3.65-.33A1.91,1.91,0,0,1,1024.29,98.46Z" transform="translate(-170.89 -69.3)" style="fill: #f8f1d2"/>
    <path d="M958.52,92.9c0,1-.27,1.34-1.35,1.7s-2.45.81-3.69,1.19a29.05,29.05,0,0,0-8.45,4.6c-.7.51-1.1.57-1.57.24a1.63,1.63,0,0,1-.56-1.71,57.32,57.32,0,0,1,4.74-12.25A34.6,34.6,0,0,1,950.81,81a11.14,11.14,0,0,1,2.81-2.71,3.37,3.37,0,0,1,1-.5c1.19-.31,1.58,0,1.94.89a6.65,6.65,0,0,1,.33,2.69,39.15,39.15,0,0,0,1.4,9.93A7,7,0,0,1,958.52,92.9Z" transform="translate(-170.89 -69.3)" style="fill: #f8f1d2"/>
    <path d="M1015.24,120.25a11.36,11.36,0,0,1-2.73,3.54,55,55,0,0,1-11.09,7.82,14.27,14.27,0,0,1-3.22,1.23,1.32,1.32,0,0,1-1.81-1.41,2.3,2.3,0,0,1,.4-1.37,26.17,26.17,0,0,0,2.53-4.87,13.3,13.3,0,0,0,.59-2,2.39,2.39,0,0,1,2.23-2.09,23.87,23.87,0,0,0,3.12-.71,36.27,36.27,0,0,0,4.37-1.82c1.09-.49,2.17-1,3.26-1.5a5.31,5.31,0,0,1,1-.32,1.28,1.28,0,0,1,1.75,1.1A3.57,3.57,0,0,1,1015.24,120.25Z" transform="translate(-170.89 -69.3)" style="fill: #f8f1d2"/>
  </g>
  <g>
    <polygon points="774.37 219.78 771.23 227.72 766.56 239.54 764 246.02 763.33 247.72 760.67 254.44 759.65 257.02 758.97 258.74 757.51 262.43 756.8 264.24 751.85 276.75 751.85 240.05 740.6 240.05 740.6 219.78 774.37 219.78" style="fill: #f8f1d2"/>
    <polygon points="814 219.78 810.87 227.7 806.83 237.91 805.65 240.91 805.62 240.97 803.34 246.75 801.29 251.93 799.79 255.73 797.94 260.4 791.48 276.75 791.48 240.05 780.22 240.05 780.22 219.78 814 219.78" style="fill: #f8f1d2"/>
    <polygon points="853.63 219.78 850.39 227.99 850.38 227.99 849.67 229.81 847.97 234.09 846.07 238.91 846.07 238.91 843.62 245.11 841.26 251.07 838.06 259.18 831.11 276.75 831.11 240.05 819.85 240.05 819.85 219.78 853.63 219.78" style="fill: #f8f1d2"/>
  </g>
  <g>
    <path d="M965.21,483.43v48.63a14.49,14.49,0,0,1-12.42,14.33v-63Z" transform="translate(-170.89 -69.3)" style="fill: #f8f1d2"/>
    <path d="M998.93,520.53v47.74a14.48,14.48,0,0,1-12.41-14.34V506.19A14.48,14.48,0,0,1,998.93,520.53Z" transform="translate(-170.89 -69.3)" style="fill: #f8f1d2"/>
    <path d="M947.42,517.72v28.67A14.47,14.47,0,0,1,935,533.09c0-.34,0-.69,0-1V517.72Z" transform="translate(-170.89 -69.3)" style="fill: #f8f1d2"/>
    <path d="M947.42,466v40.2A14.47,14.47,0,0,1,935,492.89c0-.34,0-.69,0-1V480.32c0-.34,0-.69,0-1A14.47,14.47,0,0,1,947.42,466Z" transform="translate(-170.89 -69.3)" style="fill: #f8f1d2"/>
    <path d="M1001,483.43v6.21A14.47,14.47,0,0,1,987.7,502c-.34,0-.69,0-1,0h-.15V483.43Z" transform="translate(-170.89 -69.3)" style="fill: #f8f1d2"/>
    <path d="M981.76,461.12V546.4a14.49,14.49,0,0,1-10.8-7.69,14.3,14.3,0,0,1-1.62-6.65V446.77a14.48,14.48,0,0,1,10.79,7.69A14.23,14.23,0,0,1,981.76,461.12Z" transform="translate(-170.89 -69.3)" style="fill: #f8f1d2"/>
  </g>
  <g>
    <path d="M538.13,117.85q0-.76,0-1.53h.71a.9.9,0,0,0,.91-1A48.18,48.18,0,0,0,537,101.57a.9.9,0,0,0-1.2-.52l-.66.27c-.36-1-.75-1.91-1.18-2.84l.66-.27a.92.92,0,0,0,.48-1.23,48.36,48.36,0,0,0-7.82-11.67.91.91,0,0,0-1.32,0l-.49.49-1.07-1.1c-.36-.36-.73-.71-1.1-1.06l.49-.5a.9.9,0,0,0,0-1.31A48.2,48.2,0,0,0,512.08,74a.92.92,0,0,0-1.23.48l-.27.66c-.93-.43-1.86-.82-2.83-1.18h0l.27-.65a.92.92,0,0,0-.53-1.21,48.18,48.18,0,0,0-13.79-2.73.9.9,0,0,0-.95.91V71q-.76,0-1.53,0V69.3a48.58,48.58,0,0,0-47.47,38.26,49.15,49.15,0,0,0-1.09,10.29,48.53,48.53,0,0,0,34.88,46.59,45.5,45.5,0,0,0,6,1.35,47.19,47.19,0,0,0,6.77.6.91.91,0,0,0,.93-.91v-.71l1.53,0v.71a.9.9,0,0,0,.95.91,48.18,48.18,0,0,0,13.79-2.73.92.92,0,0,0,.53-1.21l-.27-.65c1-.36,1.9-.75,2.83-1.17l.27.65a.92.92,0,0,0,1.23.48,48.2,48.2,0,0,0,11.67-7.83.9.9,0,0,0,0-1.31l-.49-.49h0l.55-.52.55-.54c.36-.36.71-.73,1.07-1.1l.49.49a.91.91,0,0,0,1.32,0,48.36,48.36,0,0,0,7.82-11.67.9.9,0,0,0-.48-1.23l-.66-.27c.43-.94.82-1.87,1.18-2.83h0l.65.27a.91.91,0,0,0,1.21-.52,48.18,48.18,0,0,0,2.73-13.8.91.91,0,0,0-.91-1h-.71C538.12,118.87,538.13,118.37,538.13,117.85Zm-56.2,33.06a34.4,34.4,0,0,1-24.26-25.71,24.88,24.88,0,0,1,11.86,3.41,25.18,25.18,0,0,1,9.68,10.26,24.61,24.61,0,0,1,2.3,6.77l.05.26.09.53c.26,1.54.5,3.08.71,4.6Zm10.82,1.23c-.51,0-1,0-1.53,0v-22a1.28,1.28,0,0,0-1.16-1.28,11.37,11.37,0,0,1-2.68-.62l-.51-.2c-.41-.18-.82-.38-1.21-.6l-.46-.28-.44-.3q-.43-.31-.84-.66c-.2-.18-.4-.36-.59-.55a11,11,0,0,1-1.21-1.43c-.11-.14-.2-.29-.3-.44s-.19-.31-.28-.46c-.17-.31-.34-.63-.49-1s-.22-.5-.31-.76a11.13,11.13,0,0,1,0-7.66c.09-.26.2-.51.31-.76s.32-.65.49-1c.09-.16.18-.31.28-.46s.19-.3.3-.44a11.19,11.19,0,0,1,7.93-4.64,1.29,1.29,0,0,0,1.17-1.28v-6a1.29,1.29,0,0,0-1.3-1.29,129.85,129.85,0,0,0-14,.87,122.86,122.86,0,0,0-12.87,2.18l-2.2.52c.33-.61.66-1.21,1-1.8a34.3,34.3,0,0,1,29.32-16.46c.51,0,1,0,1.53,0a34.32,34.32,0,0,1,0,68.58Z" transform="translate(-170.89 -69.3)" style="fill: #f8f1d2"/>
    <path d="M492.74,89.06l-1.13,0a.39.39,0,0,0-.4.39v3.86a.4.4,0,0,0,.38.39c.34,0,.67,0,1,0h.15c.53,0,1.05.09,1.56.16s1.21.17,1.79.29l.73.17A23,23,0,0,1,501,95.73l.67.31.39.19h0l-5.28,9.15-.54.93v1.61h0a.66.66,0,0,0,1,.57h0l1.4-.81.54-.93,5.14-8.9.38-.08.49.34c.6.42,1.19.88,1.75,1.36l.08.07c.45.38.87.78,1.28,1.19s.54.56.79.84.27.29.39.44a5.2,5.2,0,0,1,.38.44l.36.45.36.47c.11.15.23.3.34.47l.33.47.17.25h0l-10.09,5.83-.8,1.39h0a.65.65,0,0,0,.57,1h1.62l.92-.54,9.16-5.28h0c.06.14.13.27.19.4q.26.52.48,1.08c.08.17.15.35.23.54s.14.37.2.55.14.38.2.56.11.32.16.48l0,.13.15.53c.06.19.11.38.16.58a5.45,5.45,0,0,1,.14.58l.12.53c0,.22.09.43.12.65s.08.4.11.6.07.5.1.75,0,.31,0,.46,0,.41.05.61,0,.16,0,.24,0,.16,0,.24H503.74l-1.39.81h0a.66.66,0,0,0,0,1.14h0l1.39.8h11.64c0,.08,0,.16,0,.24l0,.24c0,.21,0,.41-.05.62s0,.27,0,.41-.06.54-.1.8-.07.4-.11.6-.08.46-.13.69-.07.33-.11.49-.09.39-.14.58-.1.39-.16.58l-.15.53c-.06.2-.13.41-.2.6s-.13.38-.2.57a23.27,23.27,0,0,1-1.11,2.56l-9.16-5.27-.92-.54h-1.62a.66.66,0,0,0-.57,1h0l.8,1.39.94.54,9.15,5.28a24.24,24.24,0,0,1-1.94,2.56c-.12.15-.25.29-.39.44a23.65,23.65,0,0,1-4.12,3.61l-.51.35L499.21,129l-.54-.93-1.4-.81h0a.66.66,0,0,0-1,.57h0v1.61l.54.93,5.28,9.16a24.86,24.86,0,0,1-3.37,1.39l-.55.17-.66.19-.58.14-.61.14c-.4.09-.81.17-1.22.24s-.83.12-1.25.16c-.22,0-.42.05-.63.06h-.13a.4.4,0,0,0-.36.39v3.86a.39.39,0,0,0,.42.39,28.83,28.83,0,0,0-.42-57.56Z" transform="translate(-170.89 -69.3)" style="fill: #f8f1d2"/>
    <circle cx="320.32" cy="48.56" r="6.07" style="fill: #f8f1d2"/>
  </g>
</svg>
